<svg xmlns="http://www.w3.org/2000/svg" width="16" height="16" fill="none"><path fill="#000" d="M6.67 6a.667.667 0 0 1 1.333 0v2.98l.806.087 3.294 1.46c.353.16.566.513.566.9v2.906c-.02.547-.453.98-1 1H7.336a.9.9 0 0 1-.667-.286l-3.266-2.8.493-.514a.66.66 0 0 1 .493-.213h.147l2.133 1.147zm.666-2.667A2.667 2.667 0 0 1 10.003 6c0 1-.534 1.847-1.334 2.307v-.814a2 2 0 1 0-2.667 0v.814A2.64 2.64 0 0 1 4.67 6a2.667 2.667 0 0 1 2.667-2.667Zm0-1.333a4 4 0 0 1 4 4 4.02 4.02 0 0 1-1.227 2.887l-.666-.3A3.35 3.35 0 0 0 10.669 6a3.333 3.333 0 1 0-4.666 3.053v.72A4 4 0 0 1 7.336 2"/></svg>